<?xml version="1.0" encoding="utf-8"?>
<!-- Generator: Adobe Illustrator 23.0.2, SVG Export Plug-In . SVG Version: 6.00 Build 0)  -->
<svg version="1.1" id="Capa_1" xmlns="http://www.w3.org/2000/svg" xmlns:xlink="http://www.w3.org/1999/xlink" x="0px" y="0px"
	 viewBox="0 0 1301.65 187.76" style="enable-background:new 0 0 1301.65 187.76;" xml:space="preserve">
<style type="text/css">
	.st0{fill:#FFFFFF;}
	.st1{fill:#1D68A0;}
</style>
<rect class="st0" width="1301.65" height="187.76"/>
<g>
	<g>
		<path class="st1" d="M71.8,114.3c0,8.35,0,16.7,0,25.05c0,2.62-1.09,3.7-3.71,3.7c-5.82,0-11.65,0-17.48,0
			c-2.62,0-3.71-1.08-3.71-3.7c0-30.32,0-60.63,0-90.95c0-2.62,1.09-3.71,3.71-3.71c7.06,0,14.12,0,21.18,0c6.17,0,12.33,0,18.49,0
			c18.2,0,32.95,14.75,32.95,32.95c0,18.2-14.75,32.95-32.95,32.95c-4.93,0-9.86,0-14.79,0C72.89,110.6,71.8,111.68,71.8,114.3z
			 M71.8,68.8c0,4.4,0,8.8,0,13.2c0,1.5,0,3,0,4.5c0,2.62,1.09,3.71,3.71,3.71c2.69,0,5.38,0,8.07,0c6.93,0,12.56-5.62,12.56-12.56
			c0-6.93-5.62-12.56-12.56-12.56c-2.69,0-5.38,0-8.07,0C72.89,65.09,71.8,66.18,71.8,68.8z"/>
		<path class="st1" d="M39.59,41.09c0,35.2,0,70.39,0,105.59c0,2.62,1.08,3.71,3.71,3.71c11.94,0,23.88,0,35.82,0
			c0,9.76,0,19.52,0,29.28c-23.7,0-47.4,0-71.11,0c0-57.19,0-114.37,0-171.56c23.7,0,47.4,0,71.11,0c0,9.76,0,19.52,0,29.28
			c-11.94,0-23.88,0-35.82,0C40.68,37.38,39.59,38.47,39.59,41.09z M29.98,22.74c0-4.04-3.28-7.32-7.32-7.32
			c-4.04,0-7.32,3.28-7.32,7.32c0,4.04,3.28,7.32,7.32,7.32C26.7,30.06,29.98,26.78,29.98,22.74z M22.66,157.7
			c-4.04,0-7.32,3.28-7.32,7.32c0,4.04,3.28,7.32,7.32,7.32c4.04,0,7.32-3.28,7.32-7.32C29.98,160.98,26.7,157.7,22.66,157.7z"/>
		<path class="st1" d="M130.57,77.65c0-22.24-18.03-40.27-40.27-40.27c-1.28,0-2.57,0-3.85,0c0-9.76,0-19.52,0-29.28
			c23.7,0,47.4,0,71.1,0c0,57.19,0,114.37,0,171.56c-23.7,0-47.4,0-71.1,0c0-20.58,0-41.16,0-61.75c1.28,0,2.57,0,3.85,0
			C112.54,117.92,130.57,99.89,130.57,77.65z M135.59,165.02c0,4.04,3.28,7.32,7.32,7.32c4.04,0,7.32-3.28,7.32-7.32
			c0-4.04-3.28-7.32-7.32-7.32C138.86,157.7,135.59,160.98,135.59,165.02z M142.91,30.06c4.04,0,7.32-3.28,7.32-7.32
			c0-4.04-3.28-7.32-7.32-7.32c-4.04,0-7.32,3.28-7.32,7.32C135.59,26.78,138.86,30.06,142.91,30.06z"/>
	</g>
	<g>
		<path class="st1" d="M244.59,123.69c-2.42,0-3.42,1-3.42,3.42c0,10.71,0,21.41,0,32.11c0,2.42-1,3.42-3.42,3.42
			c-11.06,0-22.11,0-33.17,0c-2.42,0-3.42-1-3.42-3.42c0-44.43,0-88.87,0-133.31c0-2.41,1-3.42,3.42-3.42c20.35,0,40.7,0,61.05,0
			c8.62,0,12.95,0.5,17.42,1.82c4.47,1.32,9.06,3.46,13.61,7.87c4.55,4.41,9.04,11.1,11.98,18.21c2.94,7.12,4.33,14.65,4.28,22.92
			c-0.05,8.26-1.55,17.25-4.95,24.84c-3.4,7.59-8.69,13.8-14.63,18.27c-5.94,4.47-12.52,7.19-19.86,7.26
			C263.84,123.69,254.22,123.69,244.59,123.69z M266.2,87.93c2.7-1.69,4.8-4.18,6.06-7.11c1.27-2.94,1.7-6.32,1.35-9.66
			c-0.36-3.34-1.51-6.64-3.22-9.19c-1.71-2.55-4-4.37-6.21-5.48c-2.21-1.1-4.35-1.49-8.91-1.49c-3.56,0-7.12,0-10.68,0
			c-2.42,0-3.42,1.01-3.42,3.42c0,9.59,0,19.18,0,28.77c0,2.42,1,3.42,3.42,3.42c3.56,0,7.12,0,10.68,0
			C260.17,90.52,263.49,89.62,266.2,87.93z"/>
		<path class="st1" d="M633.38,26.99c0.2-2.45-0.74-3.54-3.19-3.69c-33.26-2.09-45.41-0.05-54.42,3.03
			c-9.31,3.19-15.25,7.48-19.61,13.29c-4.36,5.81-7.13,13.14-7.96,20.7c-0.82,7.56,0.3,15.35,3.7,22.32
			c3.4,6.97,9.08,13.11,16.08,17.66c7,4.55,15.32,7.52,21.15,10.65c5.83,3.13,9.17,6.42,10.25,10.14c1.09,3.72-0.08,7.88-5.53,10.98
			c-5.1,2.9-13.95,4.88-31.61,0.63c-2.61-0.63-3.92,0.3-4.2,2.97c-0.91,8.69-1.83,17.38-2.74,26.08c-0.26,2.41,0.64,3.51,3.05,3.76
			c26.14,2.72,41.98,1.05,52.96-1.79c11.44-2.96,17.58-7.18,21.87-13.59c4.29-6.4,6.73-14.99,6.93-23.47
			c0.19-8.49-1.85-16.87-5.35-23.48c-3.5-6.61-8.45-11.44-14.76-15.12c-6.31-3.68-13.97-6.2-19.72-8.93
			c-5.75-2.74-9.58-5.69-11.42-9.3c-1.83-3.62-1.66-7.9,0.45-11.05c2.1-3.14,6.13-5.13,13.02-5.77c6.04-0.56,14.29-0.08,24.21,3.72
			c2.79,1.07,4.38,0.07,4.63-2.91C631.91,44.87,632.64,35.93,633.38,26.99z"/>
		<path class="st1" d="M1177.55,25.91c0-2.41,1-3.42,3.42-3.42c17.04,0,34.08,0,51.12,0c6.81,0,12.75,0.69,19.38,2.83
			c6.64,2.14,13.96,5.72,20.51,11.61c6.55,5.89,12.33,14.06,16.07,23.26c3.75,9.19,5.46,19.38,5.58,30.31
			c0.12,10.92-1.34,22.59-4.65,32.4c-3.31,9.82-8.46,17.8-17.29,24.99c-8.83,7.2-21.35,13.6-41.55,14.75c-16.39,0-32.78,0-49.16,0
			c-2.42,0-3.42-1-3.42-3.42C1177.55,114.78,1177.55,70.35,1177.55,25.91z M1215.88,126.76c0,2.43,1.01,3.43,3.44,3.42
			c5.52-0.03,11.92-1.62,16.82-3.88c5.96-2.76,9.71-6.51,12.4-11.94c2.69-5.43,4.33-12.53,4.73-19.37c0.4-6.84-0.44-13.42-2.23-18.8
			c-1.79-5.38-4.53-9.56-7.97-12.78c-3.43-3.23-7.58-5.51-11.38-6.71c-3.25-1.03-6.26-1.27-12.35-1.32
			c-2.43-0.02-3.45,0.99-3.45,3.42C1215.88,81.44,1215.88,104.1,1215.88,126.76z"/>
		<path class="st1" d="M833.37,99.51c-1.39-2.49-4.27-1.74-4.27,1.11c0,19.52,0,39.03,0,58.55c0,2.42-1,3.42-3.42,3.42
			c-9.37,0-18.75,0-28.11,0c-2.42,0-3.42-1-3.42-3.42c0-44.42,0-88.84,0-133.27c0-2.41,1-3.42,3.42-3.42c9.83,0,19.66,0,29.49,0
			c1.48,0,2.31,0.5,3.01,1.8c9.55,17.78,19.11,35.55,28.66,53.34c1.69,3.14,4.33,3.14,6.02,0c9.55-17.78,19.11-35.55,28.66-53.34
			c0.7-1.3,1.54-1.8,3.01-1.8c9.83,0,19.66,0,29.49,0c2.42,0,3.42,1,3.42,3.42c0,44.42,0,88.84,0,133.27c0,2.42-1,3.42-3.42,3.42
			c-9.37,0-18.74,0-28.11,0c-2.42,0-3.42-1-3.42-3.42c0-19.52,0-39.04,0-58.55c0-2.85-2.89-3.6-4.27-1.11
			c-8.46,15.22-16.92,30.45-25.37,45.67c-1.71,3.07-4.27,3.07-5.98,0C850.28,129.96,841.82,114.74,833.37,99.51z"/>
		<path class="st1" d="M749.26,159.18c0-44.42,0-88.84,0-133.27c0-2.41,1-3.42,3.42-3.42c10.82,0,21.65,0,32.47,0
			c2.42,0,3.42,1,3.42,3.42c0,44.42,0,88.84,0,133.27c0,2.42-1,3.42-3.42,3.42c-10.83,0-21.65,0-32.47,0
			C750.26,162.59,749.26,161.59,749.26,159.18z"/>
		<path class="st1" d="M668.64,55.94c-8.82,0-17.64,0-26.47,0c-2.41,0-3.42-1-3.42-3.42c0-8.86,0-17.74,0-26.61
			c0-2.41,1-3.42,3.42-3.42c33.12,0,66.23,0,99.35,0c2.42,0,3.42,1,3.42,3.42c0,8.87,0,17.74,0,26.61c0,2.42-1,3.42-3.42,3.42
			c-8.6,0-17.21,0-25.82,0c-2.42,0-3.42,1-3.42,3.42c0,33.29,0,66.58,0,99.86c0,2.42-1,3.42-3.42,3.42c-11.12,0-22.25,0-33.38,0
			c-2.42,0-3.42-1-3.42-3.42c0-33.29,0-66.58,0-99.86C672.06,56.94,671.05,55.94,668.64,55.94z"/>
		<path class="st1" d="M494.63,24.72c16.54,44.43,33.08,88.87,49.62,133.3c1.09,2.94-0.07,4.61-3.2,4.61c-11.31,0-22.61,0-33.91,0
			c-1.72,0-2.59-0.61-3.2-2.22c-2.16-5.76-4.32-11.51-6.48-17.27c-0.6-1.61-1.48-2.22-3.2-2.22c-13.31,0-26.62,0-39.93,0
			c-1.79,0-2.68,0.64-3.25,2.35c-1.87,5.67-3.74,11.35-5.61,17.01c-0.56,1.7-1.45,2.35-3.25,2.35c-10.95,0-21.91,0-32.86,0
			c-3.13,0-4.29-1.67-3.21-4.6c16.36-44.43,32.72-88.87,49.08-133.3c0.6-1.62,1.47-2.24,3.21-2.24c10.99,0,21.99,0,32.98,0
			C493.15,22.49,494.03,23.11,494.63,24.72z M483.22,103.79c-2.43-6.74-4.85-13.49-7.28-20.23c-0.45-1.25-1.63-1.28-2.13-0.05
			c-2.72,6.73-5.44,13.46-8.15,20.19c-0.8,1.97-0.01,3.13,2.11,3.13c4.43,0,8.87,0,13.3,0
			C483.15,106.84,483.92,105.74,483.22,103.79z"/>
		<path class="st1" d="M1090.29,159.22c0-44.43,0-88.87,0-133.31c0-2.41,1-3.42,3.42-3.42c10.3,0,20.6,0,30.9,0
			c2.42,0,3.42,1,3.42,3.42c0,33.68,0,67.36,0,101.03c0,2.42,1,3.42,3.42,3.42c12.52,0,25.03,0,37.55,0c2.42,0,3.42,1,3.42,3.42
			c0,8.48,0,16.96,0,25.43c0,2.42-1,3.42-3.42,3.42c-25.09,0-50.19,0-75.28,0C1091.29,162.63,1090.29,161.64,1090.29,159.22z"/>
		<path class="st1" d="M317.3,159.22c0-44.43,0-88.87,0-133.31c0-2.41,1-3.42,3.42-3.42c10.3,0,20.6,0,30.9,0
			c2.42,0,3.42,1,3.42,3.42c0,33.68,0,67.36,0,101.03c0,2.42,1,3.42,3.42,3.42c12.51,0,25.03,0,37.55,0c2.42,0,3.42,1,3.42,3.42
			c0,8.48,0,16.96,0,25.43c0,2.42-1,3.42-3.42,3.42c-25.1,0-50.19,0-75.29,0C318.3,162.63,317.3,161.64,317.3,159.22z"/>
		<path class="st1" d="M968.81,155.48c-34.02-23.2-42.79-69.59-19.58-103.61c23.2-34.02,69.59-42.79,103.61-19.59
			c34.02,23.2,42.79,69.59,19.59,103.61C1049.22,169.91,1002.83,178.68,968.81,155.48z M1034.4,116.03
			c12.58-13.35,11.96-34.38-1.39-46.95c-13.35-12.58-34.37-11.96-46.96,1.39c-12.58,13.35-11.96,34.37,1.39,46.96
			C1000.79,130,1021.81,129.37,1034.4,116.03z"/>
	</g>
</g>
</svg>
